<svg width="14" height="14" viewBox="0 0 14 14" fill="none" xmlns="http://www.w3.org/2000/svg">
<path d="M12.5501 5.03127L12.0341 4.51527L12.3941 4.13577C12.4906 4.03927 12.5388 3.93102 12.5388 3.81102C12.5388 3.69102 12.4906 3.58277 12.3941 3.48627L10.5138 1.60602C10.4173 1.50952 10.3091 1.46127 10.1891 1.46127C10.0691 1.46127 9.96082 1.50952 9.86432 1.60602L9.48482 1.96602L8.95007 1.43127L9.36857 0.994022C9.58857 0.774022 9.85832 0.667021 10.1778 0.673021C10.4968 0.679521 10.7663 0.792772 10.9863 1.01277L12.9873 3.01377C13.2073 3.23377 13.3173 3.50027 13.3173 3.81327C13.3173 4.12627 13.2073 4.39277 12.9873 4.61277L12.5501 5.03127ZM4.63157 12.9685C4.41157 13.1885 4.14507 13.2985 3.83207 13.2985C3.51907 13.2985 3.25257 13.1885 3.03257 12.9685L1.09007 11.026C0.86007 10.796 0.74507 10.51 0.74507 10.168C0.74507 9.82602 0.86007 9.54027 1.09007 9.31077L1.45007 8.95002L1.98482 9.48477L1.62032 9.84552C1.52432 9.94202 1.47632 10.0503 1.47632 10.1703C1.47632 10.2903 1.52432 10.3985 1.62032 10.495L3.50507 12.3798C3.60157 12.4758 3.70982 12.5238 3.82982 12.5238C3.94982 12.5238 4.05807 12.4758 4.15457 12.3798L4.51457 12.0153L5.05007 12.55L4.63157 12.9685ZM11.9313 7.86552L12.7841 7.01277C12.8801 6.91677 12.9281 6.80627 12.9281 6.68127C12.9281 6.55627 12.8801 6.44577 12.7841 6.34977L7.65032 1.21602C7.55432 1.12002 7.44382 1.07202 7.31882 1.07202C7.19382 1.07202 7.08332 1.12002 6.98732 1.21602L6.13457 2.06877C6.03857 2.16477 5.99057 2.27302 5.99057 2.39352C5.99057 2.51352 6.03857 2.62152 6.13457 2.71752L11.2826 7.86552C11.3786 7.96152 11.4866 8.00952 11.6066 8.00952C11.7266 8.00952 11.8348 7.96152 11.9313 7.86552ZM7.01282 12.784L7.86557 11.9268C7.96157 11.8308 8.00957 11.7228 8.00957 11.6028C8.00957 11.4828 7.96157 11.3745 7.86557 11.278L2.72207 6.13452C2.62607 6.03852 2.51782 5.99052 2.39732 5.99052C2.27732 5.99052 2.16932 6.03852 2.07332 6.13452L1.21607 6.98727C1.12007 7.08327 1.07207 7.19377 1.07207 7.31877C1.07207 7.44377 1.12007 7.55427 1.21607 7.65027L6.34982 12.784C6.44582 12.88 6.55632 12.928 6.68132 12.928C6.80632 12.928 6.91682 12.88 7.01282 12.784ZM6.48257 8.82852L8.83307 6.48252L7.51757 5.16702L5.17157 7.51752L6.48257 8.82852ZM7.53407 13.3143C7.30407 13.5443 7.01982 13.6593 6.68132 13.6593C6.34282 13.6593 6.05857 13.5443 5.82857 13.3143L0.68582 8.17152C0.45582 7.94152 0.34082 7.65727 0.34082 7.31877C0.34082 6.98027 0.45582 6.69602 0.68582 6.46602L1.53782 5.59977C1.76782 5.36977 2.05382 5.25477 2.39582 5.25477C2.73782 5.25477 3.02357 5.36977 3.25307 5.59977L4.63607 6.98277L6.98732 4.63152L5.60357 3.25302C5.37357 3.02302 5.25857 2.73652 5.25857 2.39352C5.25857 2.05002 5.37357 1.76352 5.60357 1.53402L6.47057 0.667022C6.70057 0.437022 6.98657 0.322021 7.32857 0.322021C7.67057 0.322021 7.95632 0.437022 8.18582 0.667022L13.3331 5.81427C13.5631 6.04427 13.6781 6.33027 13.6781 6.67227C13.6781 7.01427 13.5631 7.30002 13.3331 7.52952L12.4661 8.39652C12.2361 8.62652 11.9496 8.74152 11.6066 8.74152C11.2636 8.74152 10.9771 8.62652 10.7471 8.39652L9.36857 7.01277L7.01732 9.36402L8.40032 10.747C8.63032 10.977 8.74532 11.2628 8.74532 11.6043C8.74532 11.9458 8.63032 12.2318 8.40032 12.4623L7.53407 13.3143Z" fill="#9D4EDD"/>
</svg>
