<svg width="11" height="11" viewBox="0 0 11 11" fill="none" xmlns="http://www.w3.org/2000/svg">
<path d="M7.83876 1.91613L9.08405 3.16142M8.63934 0.819066L5.27052 4.18789C5.09645 4.36172 4.97774 4.58318 4.92934 4.82436L4.61816 6.38201L6.17581 6.07025C6.41699 6.02201 6.63817 5.90378 6.81228 5.72966L10.1811 2.36083C10.2823 2.2596 10.3626 2.13942 10.4174 2.00715C10.4722 1.87488 10.5004 1.73312 10.5004 1.58995C10.5004 1.44678 10.4722 1.30502 10.4174 1.17275C10.3626 1.04048 10.2823 0.9203 10.1811 0.819066C10.0799 0.717832 9.95969 0.637529 9.82743 0.582742C9.69516 0.527955 9.55339 0.499756 9.41023 0.499756C9.26706 0.499756 9.1253 0.527955 8.99303 0.582742C8.86076 0.637529 8.74058 0.717832 8.63934 0.819066Z" stroke="white" stroke-linecap="round" stroke-linejoin="round"/>
<path d="M9.32451 7.55863V9.32334C9.32451 9.63536 9.20056 9.9346 8.97993 10.1552C8.7593 10.3759 8.46006 10.4998 8.14804 10.4998H1.67745C1.36543 10.4998 1.06619 10.3759 0.845557 10.1552C0.624926 9.9346 0.500977 9.63536 0.500977 9.32334V2.85274C0.500977 2.54072 0.624926 2.24148 0.845557 2.02085C1.06619 1.80022 1.36543 1.67627 1.67745 1.67627H3.44216" stroke="white" stroke-linecap="round" stroke-linejoin="round"/>
</svg>
