<svg width="12" height="13" viewBox="0 0 12 13" fill="none" xmlns="http://www.w3.org/2000/svg">
<path d="M10.8125 3.71875H8.625C8.625 2.97904 8.34844 2.26964 7.85616 1.74658C7.36387 1.22353 6.69619 0.929688 6 0.929688C5.30381 0.929688 4.63613 1.22353 4.14384 1.74658C3.65156 2.26964 3.375 2.97904 3.375 3.71875H1.1875C0.955436 3.71875 0.732876 3.8167 0.568782 3.99105C0.404687 4.1654 0.3125 4.40187 0.3125 4.64844V11.6211C0.3125 11.8677 0.404687 12.1041 0.568782 12.2785C0.732876 12.4528 0.955436 12.5508 1.1875 12.5508H10.8125C11.0446 12.5508 11.2671 12.4528 11.4312 12.2785C11.5953 12.1041 11.6875 11.8677 11.6875 11.6211V4.64844C11.6875 4.40187 11.5953 4.1654 11.4312 3.99105C11.2671 3.8167 11.0446 3.71875 10.8125 3.71875ZM6 1.85938C6.46413 1.85938 6.90925 2.05527 7.23744 2.40397C7.56563 2.75267 7.75 3.22561 7.75 3.71875H4.25C4.25 3.22561 4.43437 2.75267 4.76256 2.40397C5.09075 2.05527 5.53587 1.85938 6 1.85938ZM10.8125 11.6211H1.1875V4.64844H3.375V5.57812C3.375 5.70141 3.42109 5.81964 3.50314 5.90682C3.58519 5.99399 3.69647 6.04297 3.8125 6.04297C3.92853 6.04297 4.03981 5.99399 4.12186 5.90682C4.20391 5.81964 4.25 5.70141 4.25 5.57812V4.64844H7.75V5.57812C7.75 5.70141 7.79609 5.81964 7.87814 5.90682C7.96019 5.99399 8.07147 6.04297 8.1875 6.04297C8.30353 6.04297 8.41481 5.99399 8.49686 5.90682C8.57891 5.81964 8.625 5.70141 8.625 5.57812V4.64844H10.8125V11.6211Z" fill="#F4D8B1"/>
</svg>
