<svg width="11" height="13" viewBox="0 0 11 13" fill="none" xmlns="http://www.w3.org/2000/svg">
<path fill-rule="evenodd" clip-rule="evenodd" d="M6.71875 11.7813L1.84375 9.75009V3.25009L6.71875 1.21884V11.7813ZM1.12469 10.7706C0.976687 10.7089 0.850266 10.6047 0.761346 10.4712C0.672427 10.3378 0.624987 10.181 0.625 10.0207V2.97953C0.624987 2.81917 0.672427 2.66239 0.761346 2.52894C0.850266 2.39549 0.976687 2.29133 1.12469 2.22959L6.24994 0.0935322C6.43517 0.0163393 6.6366 -0.0139196 6.83634 0.0054421C7.03608 0.0248038 7.22794 0.0931871 7.3949 0.20452C7.56186 0.315853 7.69875 0.46669 7.7934 0.643638C7.88806 0.820586 7.93756 1.01817 7.9375 1.21884V1.62509H8.95312C9.738 1.62509 10.375 2.26128 10.375 3.04697V9.95322C10.375 10.3303 10.2252 10.692 9.95854 10.9586C9.69189 11.2253 9.33023 11.3751 8.95312 11.3751H7.9375V11.7813C7.93756 11.982 7.88806 12.1796 7.7934 12.3566C7.69875 12.5335 7.56186 12.6843 7.3949 12.7957C7.22794 12.907 7.03608 12.9754 6.83634 12.9947C6.6366 13.0141 6.43517 12.9839 6.24994 12.9067L1.12469 10.7706ZM7.9375 10.1563H8.95312C9.007 10.1563 9.05866 10.1349 9.09676 10.0969C9.13485 10.0588 9.15625 10.0071 9.15625 9.95322V3.04697C9.15625 2.9931 9.13485 2.94143 9.09676 2.90334C9.05866 2.86525 9.007 2.84384 8.95312 2.84384H7.9375V10.1563Z" fill="#B4C4FF"/>
</svg>
