<svg width="16" height="11" viewBox="0 0 16 11" fill="none" xmlns="http://www.w3.org/2000/svg">
<path d="M14.7359 4.03846H14.0561L12.3077 0.532853C12.2285 0.374246 12.0995 0.239492 11.9362 0.144916C11.7729 0.0503403 11.5823 2.07767e-06 11.3875 0H3.98573C3.79095 2.07767e-06 3.60036 0.0503403 3.43703 0.144916C3.27371 0.239492 3.14467 0.374246 3.06554 0.532853L1.31706 4.03846H0.63731C0.503768 4.03846 0.375695 4.08574 0.281267 4.16989C0.186838 4.25404 0.133789 4.36817 0.133789 4.48718C0.133789 4.60619 0.186838 4.72032 0.281267 4.80447C0.375695 4.88862 0.503768 4.9359 0.63731 4.9359H1.14083V9.42308C1.14083 9.66109 1.24693 9.88936 1.43579 10.0577C1.62464 10.226 1.88079 10.3205 2.14787 10.3205H3.65844C3.92552 10.3205 4.18167 10.226 4.37052 10.0577C4.55938 9.88936 4.66548 9.66109 4.66548 9.42308V8.52564H10.7077V9.42308C10.7077 9.66109 10.8138 9.88936 11.0027 10.0577C11.1915 10.226 11.4477 10.3205 11.7148 10.3205H13.2253C13.4924 10.3205 13.7486 10.226 13.9374 10.0577C14.1263 9.88936 14.2324 9.66109 14.2324 9.42308V4.9359H14.7359C14.8694 4.9359 14.9975 4.88862 15.0919 4.80447C15.1864 4.72032 15.2394 4.60619 15.2394 4.48718C15.2394 4.36817 15.1864 4.25404 15.0919 4.16989C14.9975 4.08574 14.8694 4.03846 14.7359 4.03846ZM3.98573 0.897436H11.3875L12.9541 4.03846H2.41915L3.98573 0.897436ZM3.65844 9.42308H2.14787V8.52564H3.65844V9.42308ZM11.7148 9.42308V8.52564H13.2253V9.42308H11.7148ZM13.2253 7.62821H2.14787V4.9359H13.2253V7.62821ZM3.15492 6.28205C3.15492 6.16304 3.20797 6.04891 3.30239 5.96476C3.39682 5.88061 3.52489 5.83333 3.65844 5.83333H4.66548C4.79902 5.83333 4.92709 5.88061 5.02152 5.96476C5.11595 6.04891 5.169 6.16304 5.169 6.28205C5.169 6.40106 5.11595 6.51519 5.02152 6.59934C4.92709 6.68349 4.79902 6.73077 4.66548 6.73077H3.65844C3.52489 6.73077 3.39682 6.68349 3.30239 6.59934C3.20797 6.51519 3.15492 6.40106 3.15492 6.28205ZM10.2042 6.28205C10.2042 6.16304 10.2573 6.04891 10.3517 5.96476C10.4461 5.88061 10.5742 5.83333 10.7077 5.83333H11.7148C11.8483 5.83333 11.9764 5.88061 12.0708 5.96476C12.1652 6.04891 12.2183 6.16304 12.2183 6.28205C12.2183 6.40106 12.1652 6.51519 12.0708 6.59934C11.9764 6.68349 11.8483 6.73077 11.7148 6.73077H10.7077C10.5742 6.73077 10.4461 6.68349 10.3517 6.59934C10.2573 6.51519 10.2042 6.40106 10.2042 6.28205Z" fill="#CFF3E9"/>
</svg>
